<svg width="16" height="16" viewBox="0 0 16 16" fill="none" xmlns="http://www.w3.org/2000/svg">
<path d="M11.7956 3.52207L9.96143 2.33577C9.7926 2.22657 9.56544 2.27135 9.45405 2.43579L6.0984 7.24283C6.04007 7.32639 6.06267 7.44166 6.14824 7.49701L8.29131 8.88311C8.3727 8.93576 8.48117 8.91449 8.53666 8.835L11.8996 4.01753C12.011 3.85309 11.9644 3.63127 11.7956 3.52207Z" fill="white"/>
<path d="M7.93071 9.72518C7.98731 9.64163 7.96418 9.52789 7.87944 9.47309L5.73625 8.08691C5.65403 8.03373 5.54438 8.05603 5.48947 8.1371L4.86871 9.05349C4.81865 9.1274 4.83105 9.22628 4.89315 9.2904C5.10534 9.50952 5.20594 9.70268 5.19495 9.86988C5.18762 9.98137 5.12835 10.129 5.01713 10.3127C4.89153 10.5202 5.01598 10.8017 5.25808 10.8165L5.99295 10.8615C6.0891 10.8673 6.18089 10.8254 6.24775 10.756C6.34444 10.6557 6.43968 10.5825 6.53346 10.5365C6.64017 10.4841 6.82143 10.5299 7.07724 10.6738C7.16212 10.7215 7.27056 10.6997 7.32518 10.6191L7.93071 9.72518Z" fill="white"/>
<path d="M3.10001 12.4C2.82386 12.4 2.60001 12.6239 2.60001 12.9C2.60001 13.1761 2.82386 13.4 3.10001 13.4H12.9C13.1761 13.4 13.4 13.1761 13.4 12.9C13.4 12.6239 13.1761 12.4 12.9 12.4H3.10001Z" fill="white"/>
</svg>
