<svg width="16" height="16" viewBox="0 0 16 16" fill="none" xmlns="http://www.w3.org/2000/svg">
<path fill-rule="evenodd" clip-rule="evenodd" d="M9.72256 8.35194L10.7436 10.7504C10.861 11.0263 11.1785 11.1542 11.4526 11.0359C11.7267 10.9176 11.8537 10.5981 11.7362 10.3221L8.74448 3.29423C8.46396 2.63526 7.53604 2.63526 7.25552 3.29423L4.2638 10.3221C4.14632 10.5981 4.2733 10.9176 4.54741 11.0359C4.82152 11.1542 5.13896 11.0263 5.25644 10.7504L6.27746 8.3519C6.31072 8.35834 6.34506 8.36172 6.38019 8.36172H9.62007C9.65511 8.36172 9.68938 8.35836 9.72256 8.35194ZM6.73612 7.27446L8 4.30547L9.26388 7.27446H6.73612Z" fill="white"/>
<path d="M3.10001 12.4C2.82386 12.4 2.60001 12.6239 2.60001 12.9C2.60001 13.1761 2.82386 13.4 3.10001 13.4H12.9C13.1761 13.4 13.4 13.1761 13.4 12.9C13.4 12.6239 13.1761 12.4 12.9 12.4H3.10001Z" fill="white"/>
</svg>
