<svg width="16" height="16" viewBox="0 0 16 16" fill="none" xmlns="http://www.w3.org/2000/svg">
<path d="M11.4974 12.8863C11.3319 13.0609 11.0574 13.072 10.8782 12.9113V12.9113C10.6893 12.7419 10.6805 12.4488 10.8588 12.2683L11.4771 11.6424H3.68272C3.41613 11.6424 3.20001 11.4263 3.20001 11.1597V11.1597C3.20001 10.894 3.41474 10.6783 3.68044 10.677L11.4 10.6405L10.8419 10.0824C10.6595 9.90005 10.6762 9.59963 10.8776 9.4385V9.4385C11.045 9.30458 11.2852 9.3134 11.4423 9.45923L12.8963 10.8087C13.0635 10.9639 13.0719 11.2257 12.9149 11.3912L11.4974 12.8863Z" fill="white"/>
<path d="M6.85 9.89999C6.54624 9.89999 6.30001 9.65375 6.30001 9.35V7.72187C5.62308 7.72187 5.08206 7.38204 4.6 6.89999C4.11795 6.41794 4 5.97691 4 5.29999C4 4.62307 4.21795 4.10513 4.70001 3.62307C5.03075 3.29233 5.92308 3 6.60001 3H10.8346C11.1469 3 11.4 3.25313 11.4 3.56538V3.56538C11.4 3.87764 11.1469 4.13077 10.8346 4.13077H9.8V9.36152C9.8 9.65891 9.55892 9.89999 9.26153 9.89999V9.89999C8.96414 9.89999 8.72306 9.65891 8.72306 9.36152V4.13077H7.39999V9.35C7.39999 9.65375 7.15375 9.89999 6.85 9.89999V9.89999ZM6.30001 6.5923V4.13077C5.96154 4.13077 5.63332 4.25128 5.39229 4.4923C5.15127 4.73333 5.03075 5.02307 5.03075 5.36154C5.03075 5.7 5.15127 5.98974 5.39229 6.23077C5.63332 6.47179 5.96154 6.5923 6.30001 6.5923Z" fill="white"/>
</svg>
