<svg width="16" height="16" viewBox="0 0 16 16" fill="none" xmlns="http://www.w3.org/2000/svg">
<path d="M11.2981 4.30813C11.1363 4.14637 10.874 4.14637 10.7123 4.30813C10.5505 4.46989 10.5505 4.73216 10.7123 4.89392L11.8083 5.98994L7.99997 5.98993C7.77121 5.98993 7.58576 6.17538 7.58576 6.40415C7.58576 6.63291 7.77121 6.81836 7.99997 6.81836L11.8083 6.81836L10.7123 7.91438C10.5505 8.07614 10.5505 8.3384 10.7123 8.50016C10.874 8.66192 11.1363 8.66192 11.2981 8.50016L13.1012 6.69704C13.1789 6.61936 13.2225 6.514 13.2225 6.40415C13.2225 6.29429 13.1789 6.18894 13.1012 6.11126L11.2981 4.30813Z" fill="white"/>
<path d="M4.51023 11.4929C4.67199 11.6546 4.93425 11.6546 5.09601 11.4929C5.25777 11.3311 5.25777 11.0689 5.09601 10.9071L4 9.81109L7.80832 9.81109C8.03709 9.81109 8.22254 9.62564 8.22254 9.39687C8.22254 9.16811 8.03709 8.98266 7.80832 8.98266L4 8.98266L5.09601 7.88664C5.25777 7.72488 5.25777 7.46262 5.09601 7.30086C4.93425 7.1391 4.67199 7.1391 4.51023 7.30086L2.7071 9.10398C2.62942 9.18166 2.58578 9.28702 2.58578 9.39687C2.58578 9.50673 2.62942 9.61209 2.7071 9.68977L4.51023 11.4929Z" fill="white"/>
</svg>
