<?xml version="1.0" encoding="UTF-8" standalone="no"?>
<!-- Created with Inkscape (http://www.inkscape.org/) -->

<svg
   width="5.325356mm"
   height="5.321744mm"
   viewBox="0 0 5.3253561 5.321744"
   version="1.1"
   id="svg1"
   sodipodi:docname="case_sensitive.svg"
   inkscape:export-filename="case_sensitive.png"
   inkscape:export-xdpi="95.280991"
   inkscape:export-ydpi="95.280991"
   inkscape:version="1.3 (0e150ed6c4, 2023-07-21)"
   xmlns:inkscape="http://www.inkscape.org/namespaces/inkscape"
   xmlns:sodipodi="http://sodipodi.sourceforge.net/DTD/sodipodi-0.dtd"
   xmlns="http://www.w3.org/2000/svg"
   xmlns:svg="http://www.w3.org/2000/svg">
  <sodipodi:namedview
     id="namedview1"
     pagecolor="#ffffff"
     bordercolor="#000000"
     borderopacity="0.25"
     inkscape:showpageshadow="2"
     inkscape:pageopacity="0.0"
     inkscape:pagecheckerboard="0"
     inkscape:deskcolor="#d1d1d1"
     inkscape:document-units="mm"
     inkscape:zoom="18.712277"
     inkscape:cx="10.207202"
     inkscape:cy="4.9432787"
     inkscape:window-width="1440"
     inkscape:window-height="831"
     inkscape:window-x="0"
     inkscape:window-y="0"
     inkscape:window-maximized="1"
     inkscape:current-layer="layer1" />
  <defs
     id="defs1" />
  <g
     inkscape:label="图层 1"
     inkscape:groupmode="layer"
     id="layer1"
     transform="translate(-39.417839,-61.454391)">
    <path
       d="m 41.377391,63.050708 q -0.452966,0 -0.706966,0.313266 -0.254,0.309033 -0.254,0.8509 0,0.537633 0.237067,0.846666 0.237066,0.309033 0.719666,0.309033 0.194733,0 0.372533,-0.03387 0.182033,-0.0381 0.368299,-0.09737 v 0.3937 q -0.177799,0.06773 -0.364066,0.09737 -0.182033,0.03387 -0.4318,0.03387 -0.465666,0 -0.770466,-0.190499 -0.304799,-0.194734 -0.457199,-0.541867 -0.1524,-0.351366 -0.1524,-0.821266 0,-0.457199 0.1651,-0.808566 0.169333,-0.351366 0.491066,-0.546099 0.321733,-0.198967 0.787399,-0.198967 0.2286,0 0.4445,0.0508 0.220133,0.04657 0.402166,0.135467 l -0.169333,0.381 q -0.148166,-0.06773 -0.321733,-0.118534 -0.169333,-0.05503 -0.359833,-0.05503 z m 2.256362,2.713564 q -0.474132,0 -0.761999,-0.279399 -0.287866,-0.283633 -0.287866,-0.889 0,-0.423333 0.1397,-0.685799 0.139699,-0.262467 0.385233,-0.385233 0.245533,-0.127 0.558799,-0.127 0.1905,0 0.3556,0.04233 0.169333,0.0381 0.2794,0.0889 l -0.135467,0.364067 q -0.118533,-0.04657 -0.254,-0.08043 -0.131233,-0.03387 -0.249766,-0.03387 -0.618066,0 -0.618066,0.812799 0,0.389466 0.152399,0.592666 0.1524,0.2032 0.448733,0.2032 0.1905,0 0.334433,-0.04233 0.148167,-0.04233 0.270934,-0.110067 v 0.389467 q -0.122767,0.07197 -0.2667,0.105833 -0.143933,0.03387 -0.351367,0.03387 z"
       id="text1"
       style="font-weight:500;font-size:4.23333px;font-family:'Noto Sans';-inkscape-font-specification:'Noto Sans Medium';stroke-width:1.32292;stroke-linecap:round"
       aria-label="Cc" />
  </g>
</svg>
