<svg width="24" height="24" viewBox="0 0 24 24" fill="none" xmlns="http://www.w3.org/2000/svg">
<path d="M17.0128 1.95312C16.641 1.95312 16.4226 2.1421 16.2757 2.2901L14.553 4.00311L13.699 3.25214C13.2282 2.78114 12.6075 2.54614 11.9904 2.54614C11.3733 2.54614 10.7227 2.8191 10.2518 3.2901L5.29412 8.2431C4.90412 8.6331 4.92082 9.27315 5.31092 9.66315C5.70092 10.0541 6.35262 10.0371 6.74272 9.64612L11.6855 4.69611C11.847 4.53411 12.0989 4.46214 12.295 4.66614L13.1261 5.4201L7.25543 11.2901C6.26343 12.2831 5.35122 13.6211 4.47752 15.1961C3.80882 16.4011 3.19013 17.6921 2.66722 18.9771C2.48442 19.4261 1.99902 20.7261 1.99902 20.9651C1.99902 21.2031 2.07752 21.4261 2.23032 21.6021C2.24542 21.6191 2.54022 21.9441 3.00042 21.9531L16.9624 21.9451C17.514 21.9451 17.9612 21.4981 17.9612 20.9451C17.9612 20.3931 17.514 19.9451 16.9624 19.9451L7.91592 19.9471C8.22302 19.7911 8.53502 19.6261 8.83302 19.4601C10.4056 18.5861 11.6906 17.6831 12.6811 16.6911L19.1785 10.2271L21.6755 7.69611C21.8173 7.55211 21.9973 7.40112 21.9978 6.94812C22.0002 4.97112 21.1934 3.76214 20.7013 3.25714C20.2092 2.75314 19.0105 1.95513 17.0128 1.95312ZM17.3793 3.99414C17.798 3.98114 18.8293 4.22309 19.2764 4.64709C19.7235 5.07209 19.9808 6.1751 19.9665 6.5921L18.7134 7.84412L16.0282 5.36511L17.3793 3.99414ZM14.602 6.7901L17.3113 9.24414L11.2506 15.2891C10.4095 16.1311 9.25383 16.9371 7.83003 17.7291C6.87103 18.2621 5.79322 18.7631 4.76182 19.2031C5.20072 18.1701 5.69282 17.1241 6.22542 16.1641C7.01642 14.7391 7.85862 13.5511 8.69912 12.7091L14.602 6.7901Z" fill="#2F3030"/>
</svg>
