<svg width="24" height="24" viewBox="0 0 24 24" fill="none" xmlns="http://www.w3.org/2000/svg">
<path d="M8.96802 2.45522C7.55002 2.90522 6.32702 3.63923 5.24902 4.64323C4.91602 4.95323 4.81403 5.46123 5.03003 5.86123C5.83103 7.34223 4.99302 8.92723 3.18602 9.01823C2.74402 9.04023 2.35302 9.36823 2.24902 9.79923C2.07002 10.5442 1.99902 11.1682 1.99902 11.9862C1.99902 12.6732 2.07302 13.4512 2.21802 14.1432C2.30802 14.5752 2.68402 14.8862 3.12402 14.9242C4.94202 15.0812 5.84203 16.4682 5.03003 18.2362C4.85003 18.6292 4.93202 19.0992 5.24902 19.3932C6.31102 20.3752 7.53102 21.0682 8.96802 21.5182C9.37802 21.6462 9.84102 21.4912 10.093 21.1432C11.205 19.6042 12.818 19.5992 13.874 21.1432C14.123 21.5062 14.579 21.6812 14.999 21.5492C16.386 21.1122 17.678 20.3692 18.749 19.3932C19.079 19.0922 19.166 18.6052 18.968 18.2052C18.136 16.5262 19.093 14.9852 20.811 14.9552C21.267 14.9472 21.673 14.6482 21.78 14.2052C21.953 13.4882 21.999 12.8642 21.999 11.9862C21.999 11.2322 21.91 10.4892 21.749 9.76823C21.647 9.31123 21.248 8.98723 20.78 8.98623C19.089 8.98323 18.141 7.32123 18.968 5.86123C19.198 5.45523 19.126 4.95723 18.78 4.64323C17.69 3.65323 16.361 2.87922 14.968 2.45522C14.54 2.32522 14.085 2.48523 13.843 2.86123C12.877 4.36223 11.073 4.38823 10.124 2.89323C9.88102 2.50923 9.40002 2.31822 8.96802 2.45522ZM15.046 4.57923C15.729 4.86523 16.268 5.16423 16.887 5.63323C16.161 7.93023 17.392 10.3162 19.942 10.8972C20.005 11.3102 19.999 11.5602 19.999 11.9862C19.999 12.4952 20.006 12.6742 19.948 13.0422C17.409 13.5682 16.153 15.8872 16.86 18.3382C16.252 18.7792 15.817 19.0852 15.054 19.3802C13.262 17.5562 10.774 17.4762 8.94403 19.3922C8.23003 19.0782 7.68104 18.7992 7.12604 18.3302C7.81404 15.8412 6.65103 13.6922 4.06903 13.0402C3.95403 12.5842 4.00002 11.2962 4.06602 10.9052C6.73602 10.2652 7.78803 7.90223 7.12503 5.62623C7.71103 5.18523 8.23803 4.86423 8.92303 4.58623C10.648 6.34123 13.238 6.51623 15.046 4.57923ZM11.999 7.98623C9.79002 7.98623 7.99902 9.77723 7.99902 11.9862C7.99902 14.1962 9.79002 15.9862 11.999 15.9862C14.208 15.9862 15.999 14.1962 15.999 11.9862C15.999 9.77723 14.208 7.98623 11.999 7.98623ZM11.999 9.98623C13.104 9.98623 13.999 10.8822 13.999 11.9862C13.999 13.0912 13.104 13.9862 11.999 13.9862C10.894 13.9862 9.99902 13.0912 9.99902 11.9862C9.99902 10.8822 10.894 9.98623 11.999 9.98623Z" fill="#2F3030"/>
</svg>
